<svg width="670" height="660" version="1.1" xmlns="http://www.w3.org/2000/svg" desc="Created with imagetracer.js version 1.2.6" ><path fill="rgb(0,90,255)" stroke="rgb(0,90,255)" stroke-width="1" opacity="1" d="M 461.5 0 L 552.5 0 Q 597.5 14.5 625 46.5 Q 645.7 69.3 657 101.5 L 664 133.5 L 665 159.5 L 664 160.5 L 664 170.5 L 663 171.5 L 662 183.5 Q 657.7 203.2 650 219.5 Q 635.6 249.2 612.5 270 Q 591.9 288.9 563.5 300 L 535.5 308 L 520.5 309 L 519.5 310 L 493.5 310 L 461.5 304 L 442.5 297 Q 412.9 283.6 392 261.5 Q 370.3 239.2 358 207.5 L 350 177.5 L 349 160.5 L 348 159.5 L 348 143.5 L 349 142.5 L 349 132.5 L 352 115.5 L 361 88.5 Q 374.9 57.4 398.5 36 Q 423.8 11.8 461.5 0 Z " />d="M 914.5 174 L 1036 174.5 L 914.5 175 L 914.5 174 Z " /><path fill="rgb(128,173,253)" stroke="rgb(128,173,253)" stroke-width="1" opacity="1" d="M 287.5 34 L 345.5 34 L 346.5 35 L 363.5 35 L 364.5 36 L 375.5 36 L 376.5 37 L 396 38.5 Q 370.3 62.3 357 98.5 L 350 125.5 L 349 142.5 L 348 143.5 L 348 159.5 L 349 160.5 L 349 170.5 L 350 171.5 L 351 183.5 Q 355.3 203.2 363 219.5 Q 375.7 245.8 395.5 265 Q 418.7 288.3 452.5 301 L 484.5 309 L 492.5 309 L 493.5 310 L 519.5 310 L 520.5 309 L 528.5 309 L 544.5 306 L 568.5 298 Q 599.3 284.8 620.5 262 L 622 287.5 L 623 288.5 L 623 303.5 L 624 304.5 L 625 350.5 L 624 351.5 L 624 382.5 L 623 383.5 L 623 395.5 L 622 396.5 L 620 424.5 L 619 425.5 L 618 439.5 L 613 463.5 L 613 468.5 L 605 504.5 Q 588.8 559.3 551.5 593 Q 519.9 622.4 472.5 636 L 431.5 645 L 401.5 649 L 400.5 650 L 393.5 650 L 392.5 651 L 384.5 651 L 374.5 653 L 363.5 653 L 362.5 654 L 348.5 654 L 347.5 655 L 316.5 655 L 315.5 656 L 305.5 656 L 304.5 655 L 273.5 655 L 272.5 654 L 237.5 652 L 236.5 651 L 229.5 651 L 228.5 650 L 221.5 650 L 207.5 647 L 195.5 646 L 153.5 637 Q 95.9 619.1 61 578.5 Q 32.7 547.8 21 500.5 L 12 454.5 L 12 448.5 L 7 419.5 L 6 401.5 L 5 400.5 L 4 370.5 L 3 369.5 L 3 317.5 L 4 316.5 L 5 286.5 L 6 285.5 L 6 277.5 L 7 276.5 L 7 268.5 L 8 267.5 L 10 246.5 L 18 203.5 L 26 173.5 Q 42.9 125.4 77.5 95 Q 108 67.5 152.5 54 L 181.5 47 L 220.5 40 L 245.5 38 L 246.5 37 L 255.5 37 L 256.5 36 L 268.5 36 L 269.5 35 L 286.5 35 L 287.5 34 Z " /></svg>