<svg version="1.1" id="Layer_1" xmlns="http://www.w3.org/2000/svg" xmlns:xlink="http://www.w3.org/1999/xlink" x="0px" y="0px" width="100%" viewBox="0 0 250 250" enable-background="new 0 0 250 259" xml:space="preserve">

<path fill="#F6B802" opacity="1.000000" stroke="none" d="
M1.000000,112.468658 
	C1.665502,111.184738 2.824452,110.424423 2.922284,109.545944 
	C4.327447,96.928238 6.352731,84.468773 10.823570,72.495628 
	C19.145967,50.207809 35.127312,36.479786 57.756878,29.992420 
	C83.093742,22.728933 109.055229,22.519073 135.079193,23.038803 
	C138.674545,23.110607 142.259705,23.692116 146.250488,24.377464 
	C136.024780,36.042267 129.309662,49.296135 129.247742,64.946373 
	C129.147614,90.247345 140.469559,109.358910 163.574417,119.891380 
	C186.237259,130.222351 207.655655,126.464676 226.855118,110.504654 
	C228.102081,109.468102 229.504303,108.618317 230.834305,107.681648 
	C231.222961,121.768639 232.527786,135.904205 231.783905,149.931137 
	C230.689346,170.569992 228.729614,191.389359 219.714706,210.385925 
	C210.254364,230.321121 193.689774,242.007263 172.375900,246.960052 
	C156.392700,250.674133 140.262756,253.371445 123.743469,253.033920 
	C114.559074,252.846237 105.308968,253.664673 96.191963,252.858841 
	C78.385262,251.284958 60.337048,249.778946 44.100933,241.444733 
	C23.407598,230.822556 10.663095,213.950851 6.990419,190.668182 
	C5.645378,182.141403 4.309156,173.613083 2.904418,165.096115 
	C2.811500,164.532730 2.168468,164.060104 1.390655,163.772629 
	C1.000000,146.979111 1.000000,129.958206 1.000000,112.468658 
z" data-index="0" style="opacity: 1; visibility: visible;"></path>
<path fill="#0C043F" opacity="1.000000" stroke="none" d="
M821.000000,114.666664 
	C819.775269,116.822899 818.171326,118.496284 817.384521,120.491875 
	C809.525085,140.424286 801.835144,160.423431 794.026672,180.376083 
	C787.488708,197.082352 781.505371,214.046432 774.095764,230.360107 
	C765.588684,249.090134 742.281860,256.086792 724.019043,246.578827 
	C721.428223,245.230011 720.610168,243.862122 721.910461,241.088730 
	C723.739990,237.186295 725.289856,233.150787 726.902222,229.149200 
	C727.965088,226.511459 729.346008,225.698715 732.255554,227.035172 
	C743.240051,232.080765 750.814087,227.654755 756.330322,216.822662 
	C759.289978,211.010895 758.987732,206.332932 756.408875,200.492264 
	C743.859497,172.070114 731.784973,143.438309 719.558289,114.873901 
	C719.442688,114.603889 719.543884,114.241089 719.543884,113.093552 
	C728.111877,113.093552 736.672974,112.974762 745.221863,113.244766 
	C746.283630,113.278313 747.765564,115.205864 748.234314,116.542740 
	C755.322144,136.759521 762.268066,157.026031 769.275635,177.271042 
	C769.524353,177.989700 770.065125,178.607224 770.791321,179.799820 
	C771.638977,178.195892 772.421448,177.137344 772.792603,175.950195 
	C778.932617,156.308502 785.032227,136.654160 791.108826,116.992714 
	C792.036743,113.990097 793.918213,112.875397 797.068420,112.947968 
	C804.729980,113.124504 812.397888,113.025566 820.531616,113.018799 
	C821.000000,113.444443 821.000000,113.888893 821.000000,114.666664 
z" data-index="1" style="visibility: visible; opacity: 1; fill: rgb(255, 255, 255);"></path>
<path fill="#015AFE" opacity="1.000000" stroke="none" d="
M231.037750,107.420792 
	C229.504303,108.618317 228.102081,109.468102 226.855118,110.504654 
	C207.655655,126.464676 186.237259,130.222351 163.574417,119.891380 
	C140.469559,109.358910 129.147614,90.247345 129.247742,64.946373 
	C129.309662,49.296135 136.024780,36.042267 146.687698,24.393597 
	C164.236313,6.850682 191.235580,3.082598 212.219406,12.885426 
	C231.331161,21.813702 242.916183,36.989494 246.106995,58.388718 
	C248.908691,77.178520 243.488693,93.126305 231.037750,107.420792 
z" data-index="2" style="opacity: 1; visibility: visible;"></path>
</svg>